<svg xmlns="http://www.w3.org/2000/svg" viewBox="0 0 1200 800"><defs><style>.cls-1{fill:#fff;}</style></defs><g id="Graphic_Element" data-name="Graphic Element"><g id="layer1"><g id="g1595"><path id="path1483" d="M598.85,120.61c-15.63.25-32.23,9.38-40,22-9.26,15-3.07,29.73,13.83,32.9a37.77,37.77,0,0,0,9.88.47l.78,37.38c-62.92,3.68-121.24,26.32-159.24,61.82-16.47,15.38-28.6,32.7-35.72,51C182.56,349.81,48.93,398.14,50,448.57c1.14,53.63,154.11,98,379.54,110a175.31,175.31,0,0,0,14.1,10.74l-23.33,52.48c-12-6.08-24.45-9.17-34.32-8.52-19.55,1.29-23.77,16.62-9.41,34.24s41.84,30.86,61.4,29.57,23.77-16.62,9.41-34.24a79.09,79.09,0,0,0-17.82-15.7l45.67-40.2c67.1,30.15,154.31,29.5,223.58-1.65l55,48.73c-7.54,5.92-13.4,12.54-16.78,19-9.11,17.35,1.76,29,24.28,25.92s48.18-19.57,57.29-36.92h0c9.12-17.35-1.75-29-24.28-25.92h0a81.06,81.06,0,0,0-25.48,8.39l-29.42-62.72q5.41-4,10.42-8.27C987.55,533.4,1151.19,480.84,1150,425c-1.09-51.06-140-94-350.4-108.24-12.22-31.28-39.43-58.48-77.32-77.27-34.47-17.1-76.06-26.38-119.24-26.61l-9.3-39.1c11.12-3.61,20.9-10.92,26.29-19.64,9.26-15,3.07-29.73-13.83-32.9A36.38,36.38,0,0,0,598.85,120.61Z"/><path id="path1522" class="cls-1" d="M455,538.89c-3.51,1.65-5.28,3.34-5.28,5,0,11,56.11,13.21,146,13.21S733,556.19,733,545.19c0-1.56-1.49-3.11-4.44-4.63-18.69,8.78-57.84,6.93-131.93,6.93C521.24,547.49,472.51,547.87,455,538.89Z"/><path id="path1506" class="cls-1" d="M809.34,332.89A6.73,6.73,0,0,1,811,337c.35,18.89-96.66,36.12-216.68,38.49h0c-120,2.37-217.59-11-217.93-29.92h0a6.9,6.9,0,0,1,1.59-4.26c-12.76,4.7-19.3,9.63-19.21,14.48.37,19.58,106.13,33.47,236.23,31s235.26-20.31,234.9-39.89C829.79,341.94,822.79,337.17,809.34,332.89Z"/><path id="path1513" class="cls-1" d="M506.83,301.18a26.13,26.13,0,0,1-26.23,26h0a26.12,26.12,0,0,1-26.22-26h0a26.23,26.23,0,0,1,52.45,0Z"/><path id="path1515" class="cls-1" d="M629.35,308.53c0,18.19-15.78,32.94-35.25,32.94s-35.24-14.75-35.24-32.94,15.78-32.94,35.24-32.94S629.35,290.34,629.35,308.53Z"/><path id="path1517" class="cls-1" d="M741.81,299.93c0,15.06-11.93,27.27-26.65,27.27S688.52,315,688.52,299.93s11.92-27.28,26.64-27.28S741.81,284.86,741.81,299.93Z"/></g></g></g></svg>